<?xml version="1.0" encoding="UTF-8"?>
<svg width="32px" height="32px" viewBox="0 0 32 32" version="1.1" xmlns="http://www.w3.org/2000/svg" xmlns:xlink="http://www.w3.org/1999/xlink">
    <!-- Generator: Sketch 49.3 (51167) - http://www.bohemiancoding.com/sketch -->
    <title>icon-add</title>
    <desc>Created with Sketch.</desc>
    <defs></defs>
    <g id="icon-add" stroke="none" stroke-width="1" fill="none" fill-rule="evenodd">
        <g transform="translate(5.500000, 5.500000)" fill="#333333" fill-rule="nonzero" id="Shape">
            <path d="M11.3073529,5.13970588 L9.25147058,5.13970588 L9.25147058,9.25147058 L5.13970588,9.25147058 L5.13970588,11.3073529 L9.25147058,11.3073529 L9.25147058,15.4191176 L11.3073529,15.4191176 L11.3073529,11.3073529 L15.4191176,11.3073529 L15.4191176,9.25147058 L11.3073529,9.25147058 L11.3073529,5.13970588 Z M10.2794118,0 C4.60517647,0 0,4.60517647 0,10.2794118 C0,15.9536471 4.60517647,20.5588235 10.2794118,20.5588235 C15.9536471,20.5588235 20.5588235,15.9536471 20.5588235,10.2794118 C20.5588235,4.60517647 15.9536471,0 10.2794118,0 Z M10.2794118,18.5029412 C5.74619117,18.5029412 2.05588235,14.8126323 2.05588235,10.2794118 C2.05588235,5.74619117 5.74619117,2.05588235 10.2794118,2.05588235 C14.8126323,2.05588235 18.5029412,5.74619117 18.5029412,10.2794118 C18.5029412,14.8126323 14.8126323,18.5029412 10.2794118,18.5029412 Z"></path>
        </g>
    </g>
</svg>