<?xml version="1.0" encoding="UTF-8"?>
<svg width="32px" height="32px" viewBox="0 0 32 32" version="1.1" xmlns="http://www.w3.org/2000/svg" xmlns:xlink="http://www.w3.org/1999/xlink">
    <!-- Generator: Sketch 52 (66869) - http://www.bohemiancoding.com/sketch -->
    <title>icon-preview</title>
    <desc>Created with Sketch.</desc>
    <g id="icon-preview" stroke="none" stroke-width="1" fill="none" fill-rule="evenodd">
        <path d="M16,13.45 C16.396002,13.45 16.7679983,13.551999 17.116,13.756 C17.4640017,13.960001 17.739999,14.2359983 17.944,14.584 C18.148001,14.9320017 18.25,15.303998 18.25,15.7 C18.25,16.096002 18.148001,16.4679983 17.944,16.816 C17.739999,17.1640017 17.4640017,17.439999 17.116,17.644 C16.7679983,17.848001 16.396002,17.95 16,17.95 C15.603998,17.95 15.2320017,17.848001 14.884,17.644 C14.5359983,17.439999 14.260001,17.1640017 14.056,16.816 C13.851999,16.4679983 13.75,16.096002 13.75,15.7 C13.75,15.303998 13.851999,14.9320017 14.056,14.584 C14.260001,14.2359983 14.5359983,13.960001 14.884,13.756 C15.2320017,13.551999 15.603998,13.45 16,13.45 Z M16,19.462 C16.6840034,19.462 17.3139971,19.2940017 17.89,18.958 C18.4660029,18.6219983 18.9219983,18.1660029 19.258,17.59 C19.5940017,17.0139971 19.762,16.3840034 19.762,15.7 C19.762,15.0159966 19.5940017,14.3860029 19.258,13.81 C18.9219983,13.2339971 18.4660029,12.7780017 17.89,12.442 C17.3139971,12.1059983 16.6840034,11.938 16,11.938 C15.3159966,11.938 14.6860029,12.1059983 14.11,12.442 C13.5339971,12.7780017 13.0780017,13.2339971 12.742,13.81 C12.4059983,14.3860029 12.238,15.0159966 12.238,15.7 C12.238,16.3840034 12.4059983,17.0139971 12.742,17.59 C13.0780017,18.1660029 13.5339971,18.6219983 14.11,18.958 C14.6860029,19.2940017 15.3159966,19.462 16,19.462 Z M16,10.066 C17.2360062,10.066 18.4119944,10.3059976 19.528,10.786 C20.6080054,11.2540023 21.5589959,11.9139957 22.381,12.766 C23.2030041,13.6180043 23.8299978,14.5959945 24.262,15.7 C23.8299978,16.8040055 23.2030041,17.7789958 22.381,18.625 C21.5589959,19.4710042 20.6080054,20.1279977 19.528,20.596 C18.4119944,21.0760024 17.2360062,21.316 16,21.316 C14.7639938,21.316 13.5880056,21.0760024 12.472,20.596 C11.3919946,20.1279977 10.4410041,19.4710042 9.619,18.625 C8.79699589,17.7789958 8.17000216,16.8040055 7.738,15.7 C8.17000216,14.5959945 8.79699589,13.6180043 9.619,12.766 C10.4410041,11.9139957 11.3919946,11.2540023 12.472,10.786 C13.5880056,10.3059976 14.7639938,10.066 16,10.066 Z" id="remove_red_eye---material" fill="#4A4A4A"></path>
    </g>
</svg>