<?xml version="1.0" encoding="UTF-8"?>
<svg width="12px" height="16px" viewBox="0 0 17 23" version="1.1" xmlns="http://www.w3.org/2000/svg" xmlns:xlink="http://www.w3.org/1999/xlink">
    <!-- Generator: Sketch 49.1 (51147) - http://www.bohemiancoding.com/sketch -->
    <title>Artboard</title>
    <desc>Created with Sketch.</desc>
    <defs></defs>
    <g id="Artboard" stroke="none" stroke-width="1" fill="none" fill-rule="evenodd">
        <path d="M8.1379439,3.19075803 L8.1379439,0.190758032 L4.1379439,4.19075803 L8.1379439,8.19075803 L8.1379439,5.19075803 C11.4479439,5.19075803 14.1379439,7.88075803 14.1379439,11.190758 C14.1379439,12.200758 13.8879439,13.160758 13.4379439,13.990758 L14.8979439,15.450758 C15.6779439,14.220758 16.1379439,12.760758 16.1379439,11.190758 C16.1379439,6.77075803 12.5579439,3.19075803 8.1379439,3.19075803 Z M8.1379439,17.190758 C4.8279439,17.190758 2.1379439,14.500758 2.1379439,11.190758 C2.1379439,10.180758 2.3879439,9.22075803 2.8379439,8.39075803 L1.3779439,6.93075803 C0.597943898,8.16075803 0.137943898,9.62075803 0.137943898,11.190758 C0.137943898,15.610758 3.7179439,19.190758 8.1379439,19.190758 L8.1379439,22.190758 L12.1379439,18.190758 L8.1379439,14.190758 L8.1379439,17.190758 Z" id="Shape" fill="#4A4A4A" fill-rule="nonzero" transform="translate(8.137944, 11.190758) rotate(-360.000000) translate(-8.137944, -11.190758) "></path>
    </g>
</svg>