
<svg width="16px" height="16px" viewBox="0 0 16 16" version="1.1" xmlns="http://www.w3.org/2000/svg" xmlns:xlink="http://www.w3.org/1999/xlink">
    <!-- Generator: Sketch 48.2 (47327) - http://www.bohemiancoding.com/sketch -->
    <desc>Created with Sketch.</desc>
    <defs></defs>
    <g id="Scratch" stroke="none" stroke-width="1" fill="none" fill-rule="evenodd">
        <g id="pickers" transform="translate(-947.000000, -749.000000)" fill="#D0021B">
            <g id="Group-26" transform="translate(930.000000, 637.000000)">
                <g id="Welcome-back-Copy-6">
                    <g id="Group-8-Copy" transform="translate(17.000000, 112.000000)">
                        <path d="M3.45371185,12.5384756 C4.73009001,13.7898268 6.24420217,14.415493 7.99609375,14.415493 C9.74798533,14.415493 11.2558408,13.7835701 12.5197055,12.5197055 C13.7835701,11.2558408 14.415493,9.74798533 14.415493,7.99609375 C14.415493,6.24420217 13.7835701,4.73634667 12.5197055,3.47248203 C11.2558408,2.20861738 9.74798533,1.57669454 7.99609375,1.57669454 C6.24420217,1.57669454 4.73634667,2.20861738 3.47248203,3.47248203 C2.20861738,4.73634667 1.57669454,6.24420217 1.57669454,7.99609375 C1.57669454,9.74798533 2.20236072,11.2620975 3.45371185,12.5384756 Z M2.32750147,2.36504181 C3.90420389,0.788339388 5.79371576,0 7.99609375,0 C10.1984717,0 12.0817269,0.782082726 13.6459159,2.34627164 C15.2101048,3.91046055 15.9921875,5.79371576 15.9921875,7.99609375 C15.9921875,10.1984717 15.2101048,12.0817269 13.6459159,13.6459159 C12.0817269,15.2101048 10.1984717,15.9921875 7.99609375,15.9921875 C5.79371576,15.9921875 3.91046055,15.2101048 2.34627164,13.6459159 C0.782082726,12.0817269 0,10.1984717 0,7.99609375 C0,5.79371576 0.775826064,3.91671722 2.32750147,2.36504181 Z M7.20774648,3.9792767 L8.78444102,3.9792767 L8.78444102,8.78444102 L7.20774648,8.78444102 L7.20774648,3.9792767 Z M7.20774648,10.3986759 L8.78444102,10.3986759 L8.78444102,12.0129108 L7.20774648,12.0129108 L7.20774648,10.3986759 Z" id="î€"></path>
                    </g>
                </g>
            </g>
        </g>
    </g>
</svg>
