<?xml version="1.0" encoding="UTF-8"?>
<svg width="25px" height="29px" viewBox="0 0 25 29" version="1.1" xmlns="http://www.w3.org/2000/svg" xmlns:xlink="http://www.w3.org/1999/xlink">
    <!-- Generator: Sketch 49.1 (51147) - http://www.bohemiancoding.com/sketch -->
    <title>Artboard</title>
    <desc>Created with Sketch.</desc>
    <defs></defs>
    <g id="Artboard" stroke="none" stroke-width="1" fill="none" fill-rule="evenodd">
        <g id="icon-add-rule" transform="translate(-0.500000, 0.000000)" fill="#6F777B">
            <g id="Group" transform="translate(4.336182, 4.000000)" fill-rule="nonzero">
                <path d="M13.4272609,14.8393858 L11.4322963,16.8124277 L16.6322963,16.8124277 L16.6322963,11.6695705 L14.9593287,13.3241539 L11.0980459,9.48978761 L11.0980459,4.81242763 L8.93137927,4.81242763 L8.93137927,10.3748445 L13.4272609,14.8393858 Z M5.46328916,13.4804426 L3.63229632,11.6695705 L3.63229632,16.8124277 L8.83229632,16.8124277 L6.995357,14.9956745 L9.51037069,12.4981927 L7.97520325,10.9860388 L5.46328916,13.4804426 Z M0.122097975,7.49051338 L3.42123987,7.49051338 L3.41437604,3.88934151 L7.00500104,3.88934151 L7.00500104,0.569349017 L18.1122768,0.568805804 C19.2168463,0.568805804 20.1122768,1.4642363 20.1122768,2.5688058 L20.1122768,18.5688058 C20.1122768,19.6733752 19.2168463,20.5688058 18.1122768,20.5688058 L2.11227679,20.5688058 C1.00770729,20.5688058 0.112276786,19.6733752 0.112276786,18.5688058 L0.122097975,7.49051338 Z" id="Combined-Shape"></path>
            </g>
            <g id="Combined-Shape" transform="translate(0.336182, 0.000000)">
                <g id="path-1-link">
                    <polygon id="path-1" points="5.9 4.57476196 9.5 4.57476196 9.5 6.37476196 5.9 6.37476196 5.9 9.97476196 4.1 9.97476196 4.1 6.37476196 0.5 6.37476196 0.5 4.57476196 4.1 4.57476196 4.1 0.974761963 5.9 0.974761963"></polygon>
                </g>
            </g>
        </g>
    </g>
</svg>