<?xml version="1.0" encoding="UTF-8"?>
<svg width="14px" height="14px" viewBox="0 0 14 14" version="1.1" xmlns="http://www.w3.org/2000/svg" xmlns:xlink="http://www.w3.org/1999/xlink">
    <!-- Generator: Sketch 47.1 (45422) - http://www.bohemiancoding.com/sketch -->
    <title>Artboard</title>
    <desc>Created with Sketch.</desc>
    <defs></defs>
    <g id="Page-1" stroke="none" stroke-width="1" fill="none" fill-rule="evenodd">
        <g id="Artboard" fill="#1CA8F4">
            <path d="M3.02347418,10.9765258 C4.14085066,12.071993 5.46634601,12.6197183 7,12.6197183 C8.53365399,12.6197183 9.85367209,12.0665157 10.9600939,10.9600939 C12.0665157,9.85367209 12.6197183,8.53365399 12.6197183,7 C12.6197183,5.46634601 12.0665157,4.14632791 10.9600939,3.0399061 C9.85367209,1.9334843 8.53365399,1.38028169 7,1.38028169 C5.46634601,1.38028169 4.14632791,1.9334843 3.0399061,3.0399061 C1.9334843,4.14632791 1.38028169,5.46634601 1.38028169,7 C1.38028169,8.53365399 1.92800704,9.85914934 3.02347418,10.9765258 Z M2.03755869,2.07042254 C3.41784728,0.690133944 5.07197784,0 7,0 C8.92802216,0 10.5766755,0.68465669 11.9460094,2.05399061 C13.3153433,3.42332453 14,5.07197784 14,7 C14,8.92802216 13.3153433,10.5766755 11.9460094,11.9460094 C10.5766755,13.3153433 8.92802216,14 7,14 C5.07197784,14 3.42332453,13.3153433 2.05399061,11.9460094 C0.68465669,10.5766755 0,8.92802216 0,7 C0,5.07197784 0.679179437,3.42880178 2.03755869,2.07042254 Z M7.69014085,3.48356808 L7.69014085,6.30985915 L10.5164319,6.30985915 L10.5164319,7.69014085 L7.69014085,7.69014085 L7.69014085,10.5164319 L6.30985915,10.5164319 L6.30985915,7.69014085 L3.48356808,7.69014085 L3.48356808,6.30985915 L6.30985915,6.30985915 L6.30985915,3.48356808 L7.69014085,3.48356808 Z" id=""></path>
        </g>
    </g>
</svg>