<svg width="22px" height="22px" viewBox="0 0 22 22" version="1.1" xmlns="http://www.w3.org/2000/svg" xmlns:xlink="http://www.w3.org/1999/xlink">
    <!-- Generator: Sketch 48.1 (47250) - http://www.bohemiancoding.com/sketch -->
    <desc>Created with Sketch.</desc>
    <defs></defs>
    <g id="Scratch" stroke="none" stroke-width="1" fill="none" fill-rule="evenodd">
        <g id="pickers" transform="translate(-387.000000, -2106.000000)" fill="#9B9B9B">
            <path d="M396.976507,2113.85679 L396.976507,2111.73707 L399.04693,2111.73707 L399.04693,2113.85679 L396.976507,2113.85679 Z M392.04693,2122.97651 C393.722995,2124.61971 395.711238,2125.4413 398.011719,2125.4413 C400.3122,2125.4413 402.292227,2124.61149 403.95186,2122.95186 C405.611492,2121.29223 406.441296,2119.3122 406.441296,2117.01172 C406.441296,2114.71124 405.611492,2112.73121 403.95186,2111.07158 C402.292227,2109.41195 400.3122,2108.58214 398.011719,2108.58214 C395.711238,2108.58214 393.731211,2109.41195 392.071578,2111.07158 C390.411945,2112.73121 389.582141,2114.71124 389.582141,2117.01172 C389.582141,2119.3122 390.403729,2121.30044 392.04693,2122.97651 Z M390.568057,2109.61735 C392.63849,2107.54692 395.119686,2106.51172 398.011719,2106.51172 C400.903752,2106.51172 403.376732,2107.5387 405.430733,2109.5927 C407.484734,2111.64671 408.511719,2114.11969 408.511719,2117.01172 C408.511719,2119.90375 407.484734,2122.37673 405.430733,2124.43073 C403.376732,2126.48473 400.903752,2127.51172 398.011719,2127.51172 C395.119686,2127.51172 392.646706,2126.48473 390.592705,2124.43073 C388.538704,2122.37673 387.511719,2119.90375 387.511719,2117.01172 C387.511719,2114.11969 388.530488,2111.65492 390.568057,2109.61735 Z M396.976507,2122.28637 L396.976507,2115.97651 L399.04693,2115.97651 L399.04693,2122.28637 L396.976507,2122.28637 Z" id="î¢"></path>
        </g>
    </g>
</svg>
