
<svg width="28px" height="34px" viewBox="0 0 28 34" version="1.1" xmlns="http://www.w3.org/2000/svg" xmlns:xlink="http://www.w3.org/1999/xlink">
    <!-- Generator: Sketch 48.2 (47327) - http://www.bohemiancoding.com/sketch -->
    <desc>Created with Sketch.</desc>
    <defs></defs>
    <g id="Delete-and-moving" stroke="none" stroke-width="1" fill="none" fill-rule="evenodd">
        <g id="Delete-page-confirmation" transform="translate(-450.000000, -279.000000)" fill="#6F777B">
            <g id="Modal" transform="translate(410.000000, 214.000000)">
                <path d="M54.9333333,76.2 L64.2666667,76.2 L54.9333333,66.8666667 L54.9333333,76.2 Z M57.5204678,65 L68,75.0957746 L68,95.2873239 C68,96.1812251 67.6452277,96.9568042 66.9356725,97.6140845 C66.2261173,98.2713648 65.407412,98.6 64.4795322,98.6 L43.5204678,98.6 C42.592588,98.6 41.7738827,98.2713648 41.0643275,97.6140845 C40.3547723,96.9568042 40,96.1812251 40,95.2873239 L40.0818713,68.3126761 C40.0818713,67.4187749 40.4229985,66.6431958 41.1052632,65.9859155 C41.7875278,65.3286352 42.592588,65 43.5204678,65 L57.5204678,65 Z" id=""></path>
            </g>
        </g>
    </g>
</svg>