<?xml version="1.0" encoding="UTF-8"?>
<svg width="16px" height="17px" viewBox="0 0 16 17" version="1.1" xmlns="http://www.w3.org/2000/svg" xmlns:xlink="http://www.w3.org/1999/xlink">
    <!-- Generator: Sketch 52.3 (67297) - http://www.bohemiancoding.com/sketch -->
    <title>icon-date</title>
    <desc>Created with Sketch.</desc>
    <g id="icon-date" stroke="none" stroke-width="1" fill="none" fill-rule="evenodd" transform="translate(0.000000, 0.571429)">
        <path d="M11.1662301,11.7127145 L11.1662301,6.61051106 L4.83376991,6.61051106 L4.83376991,11.7127145 L11.1662301,11.7127145 Z M11.1662301,4.28728555 C11.4128563,4.28728555 11.6268377,4.37991722 11.8081805,4.56518334 C11.9895234,4.75044945 12.0801934,4.9690602 12.0801934,5.22102212 L12.0801934,11.7127145 C12.0801934,11.9646764 11.9895234,12.1795818 11.8081805,12.3574373 C11.6268377,12.5352928 11.4128563,12.6242192 11.1662301,12.6242192 L4.83376991,12.6242192 C4.57988994,12.6242192 4.36409521,12.5352928 4.18637923,12.3574373 C4.00866325,12.1795818 3.91980659,11.9646764 3.91980659,11.7127145 L3.91980659,5.22102212 C3.91980659,4.9690602 4.00866325,4.75044945 4.18637923,4.56518334 C4.36409521,4.37991722 4.57988994,4.28728555 4.83376991,4.28728555 L5.27987106,4.28728555 L5.27987106,3.3757808 L6.19383438,3.3757808 L6.19383438,4.28728555 L9.80616562,4.28728555 L9.80616562,3.3757808 L10.7201289,3.3757808 L10.7201289,4.28728555 L11.1662301,4.28728555 Z M10.2740278,7.54424763 L10.2740278,8.45575237 L9.36006447,8.45575237 L9.36006447,7.54424763 L10.2740278,7.54424763 Z M8.44610115,7.54424763 L8.44610115,8.45575237 L7.55389885,8.45575237 L7.55389885,7.54424763 L8.44610115,7.54424763 Z M6.63993553,7.54424763 L6.63993553,8.45575237 L5.72597221,8.45575237 L5.72597221,7.54424763 L6.63993553,7.54424763 Z" id="date_range---material" fill="#666666"></path>
    </g>
</svg>