<?xml version="1.0" encoding="UTF-8"?>
<svg width="16px" height="17px" viewBox="0 0 16 17" version="1.1" xmlns="http://www.w3.org/2000/svg" xmlns:xlink="http://www.w3.org/1999/xlink">
    <!-- Generator: Sketch 52.3 (67297) - http://www.bohemiancoding.com/sketch -->
    <title>icon-daterange</title>
    <desc>Created with Sketch.</desc>
    <g id="icon-daterange" stroke="none" stroke-width="1" fill="none" fill-rule="evenodd" transform="translate(0.000000, 0.857143)">
        <g id="Group" transform="translate(3.632918, 2.859235)">
            <polygon id="Path" fill="#FFFFFF" points="5.14909443 6.00236931 5.14909443 2.53203336 0.748799171 2.53203336 0.748799171 6.00236931"></polygon>
            <path d="M5.14909443,6.00236931 L5.14909443,2.53203336 L0.748799171,2.53203336 L0.748799171,6.00236931 L5.14909443,6.00236931 Z M5.14909443,0.951858598 C5.32046991,0.951858598 5.4691611,1.01486334 5.59517248,1.14087472 C5.72118385,1.26688609 5.7841886,1.41557729 5.7841886,1.58695276 L5.7841886,6.00236931 C5.7841886,6.17374478 5.72118385,6.31991579 5.59517248,6.44088671 C5.4691611,6.56185763 5.32046991,6.62234218 5.14909443,6.62234218 L0.748799171,6.62234218 C0.572383244,6.62234218 0.422431955,6.56185763 0.298940807,6.44088671 C0.175449658,6.31991579 0.113705009,6.17374478 0.113705009,6.00236931 L0.113705009,1.58695276 C0.113705009,1.41557729 0.175449658,1.26688609 0.298940807,1.14087472 C0.422431955,1.01486334 0.572383244,0.951858598 0.748799171,0.951858598 L1.05878561,0.951858598 L1.05878561,0.331885726 L1.69387977,0.331885726 L1.69387977,0.951858598 L4.20401384,0.951858598 L4.20401384,0.331885726 L4.839108,0.331885726 L4.839108,0.951858598 L5.14909443,0.951858598 Z M4.52912156,3.16712752 L4.52912156,3.78710039 L3.8940274,3.78710039 L3.8940274,3.16712752 L4.52912156,3.16712752 Z M3.25893324,3.16712752 L3.25893324,3.78710039 L2.63896037,3.78710039 L2.63896037,3.16712752 L3.25893324,3.16712752 Z M2.0038662,3.16712752 L2.0038662,3.78710039 L1.36877204,3.78710039 L1.36877204,3.16712752 L2.0038662,3.16712752 Z" id="date_range---material-copy" fill="#666666"></path>
        </g>
        <g id="Group-Copy" transform="translate(6.468755, 5.931699)">
            <polygon id="Path" fill="#FFFFFF" points="5.14909443 6.00236931 5.14909443 2.53203336 0.748799171 2.53203336 0.748799171 6.00236931"></polygon>
            <path d="M5.14909443,6.00236931 L5.14909443,2.53203336 L0.748799171,2.53203336 L0.748799171,6.00236931 L5.14909443,6.00236931 Z M5.14909443,0.951858598 C5.32046991,0.951858598 5.4691611,1.01486334 5.59517248,1.14087472 C5.72118385,1.26688609 5.7841886,1.41557729 5.7841886,1.58695276 L5.7841886,6.00236931 C5.7841886,6.17374478 5.72118385,6.31991579 5.59517248,6.44088671 C5.4691611,6.56185763 5.32046991,6.62234218 5.14909443,6.62234218 L0.748799171,6.62234218 C0.572383244,6.62234218 0.422431955,6.56185763 0.298940807,6.44088671 C0.175449658,6.31991579 0.113705009,6.17374478 0.113705009,6.00236931 L0.113705009,1.58695276 C0.113705009,1.41557729 0.175449658,1.26688609 0.298940807,1.14087472 C0.422431955,1.01486334 0.572383244,0.951858598 0.748799171,0.951858598 L1.05878561,0.951858598 L1.05878561,0.331885726 L1.69387977,0.331885726 L1.69387977,0.951858598 L4.20401384,0.951858598 L4.20401384,0.331885726 L4.839108,0.331885726 L4.839108,0.951858598 L5.14909443,0.951858598 Z M4.52912156,3.16712752 L4.52912156,3.78710039 L3.8940274,3.78710039 L3.8940274,3.16712752 L4.52912156,3.16712752 Z M3.25893324,3.16712752 L3.25893324,3.78710039 L2.63896037,3.78710039 L2.63896037,3.16712752 L3.25893324,3.16712752 Z M2.0038662,3.16712752 L2.0038662,3.78710039 L1.36877204,3.78710039 L1.36877204,3.16712752 L2.0038662,3.16712752 Z" id="date_range---material-copy" fill="#666666"></path>
        </g>
    </g>
</svg>