<?xml version="1.0" encoding="UTF-8"?>
<svg width="16px" height="17px" viewBox="0 0 16 17" version="1.1" xmlns="http://www.w3.org/2000/svg" xmlns:xlink="http://www.w3.org/1999/xlink">
    <!-- Generator: Sketch 52.3 (67297) - http://www.bohemiancoding.com/sketch -->
    <title>icon-currency</title>
    <desc>Created with Sketch.</desc>
    <g id="icon-currency" stroke="none" stroke-width="1" fill="none" fill-rule="evenodd" transform="translate(0.000000, 0.428571)">
        <path d="M5.62861374,8.22124346 C5.62861374,8.10668317 5.66512929,8.00716041 5.73816148,7.92267219 C5.81119366,7.83818397 5.9207403,7.79594049 6.06680468,7.79594049 L6.42766781,7.79594049 L6.42766781,6.86800674 C6.42766781,6.59592604 6.46919529,6.33745325 6.55225151,6.09258062 C6.63530772,5.84770799 6.76203815,5.63219466 6.93244658,5.44603418 C7.10285502,5.2598737 7.31622037,5.11166354 7.57254903,5.00139926 C7.8288777,4.89113498 8.13174193,4.83600366 8.48115084,4.83600366 C8.71313543,4.83600366 8.92292083,4.8653593 9.11051331,4.92407145 C9.2981058,4.9827836 9.46564771,5.06440658 9.61314409,5.16894285 C9.76064047,5.27347912 9.89023486,5.39662959 10.0019312,5.53839796 C10.1136274,5.68016633 10.2110022,5.83267243 10.2940584,5.99592085 L9.76135574,6.33100804 C9.64106743,6.3940162 9.52436087,6.42193986 9.41123258,6.41477984 C9.29810429,6.40761982 9.19428558,6.35392049 9.09977334,6.25368023 C8.99094106,6.14198394 8.89213428,6.05892897 8.80335005,6.00451283 C8.71456583,5.95009669 8.60716716,5.92288903 8.48115084,5.92288903 C8.24916624,5.92288903 8.07661238,6.00379602 7.96348409,6.16561244 C7.8503558,6.32742886 7.7937925,6.56012597 7.7937925,6.86371075 L7.7937925,7.79594049 L9.42626855,7.79594049 L9.42626855,8.30286727 C9.42626855,8.34582738 9.41696066,8.38663887 9.39834461,8.42530297 C9.37972857,8.46396707 9.35395289,8.49905063 9.3210168,8.53055472 C9.28808072,8.5620588 9.2494172,8.58711849 9.20502508,8.60573453 C9.16063297,8.62435058 9.11122958,8.63365847 9.05681344,8.63365847 L7.7937925,8.63365847 L7.7937925,9.30383284 C7.7937925,9.47567329 7.7615729,9.63104336 7.69713273,9.76994771 C7.63269257,9.90885207 7.54605764,10.0384465 7.43722536,10.1587348 C7.56610569,10.1300947 7.69498409,10.107899 7.82386443,10.0921469 C7.95274476,10.0763949 8.08305514,10.068519 8.21479948,10.068519 L10.3713863,10.068519 L10.3713863,10.6141097 C10.3713863,10.6771178 10.3577824,10.741557 10.3305744,10.8074292 C10.3033663,10.8733014 10.2654188,10.9327286 10.2167306,10.9857128 C10.1680425,11.0386969 10.1086152,11.0816564 10.0384471,11.1145925 C9.96827888,11.1475285 9.89023585,11.1639963 9.80431563,11.1639963 L5.70594155,11.1639963 L5.70594155,10.3649423 C5.8004538,10.3477582 5.89138467,10.3205506 5.97873689,10.2833185 C6.06608912,10.2460864 6.14270017,10.198831 6.20857234,10.1415508 C6.27444451,10.0842707 6.32742785,10.0155355 6.36752395,9.93534331 C6.40762006,9.85515111 6.42766781,9.76207226 6.42766781,9.65610399 L6.42766781,8.63365847 L5.62861374,8.63365847 L5.62861374,8.22124346 Z" id="£" fill="#666666"></path>
    </g>
</svg>