<?xml version="1.0" encoding="UTF-8"?>
<svg width="16px" height="16px" viewBox="0 0 16 16" version="1.1" xmlns="http://www.w3.org/2000/svg" xmlns:xlink="http://www.w3.org/1999/xlink">
    <!-- Generator: Sketch 52.3 (67297) - http://www.bohemiancoding.com/sketch -->
    <title>icon-checkbox</title>
    <desc>Created with Sketch.</desc>
    <g id="icon-checkbox" stroke="none" stroke-width="1" fill="none" fill-rule="evenodd">
        <polygon id="Path" fill="#666666" points="7.23523906 9.98473672 10.6493504 6.57062539 10.1121969 6.01526328 7.23523906 8.90132539 5.88780312 7.54478516 5.35064961 8.08193867"></polygon>
        <path d="M11.0735407,4.38925171 L4.92645933,4.38925171 C4.77406566,4.38925171 4.65468116,4.43941327 4.54799509,4.5482766 C4.43908151,4.65941291 4.38925171,4.7794112 4.38925171,4.92645933 L4.38925171,11.0735407 C4.38925171,11.2205888 4.43908151,11.3405871 4.54799509,11.4517234 C4.65468116,11.5605867 4.77406566,11.6107483 4.92645933,11.6107483 L11.0735407,11.6107483 C11.2259343,11.6107483 11.3453188,11.5605867 11.4520049,11.4517234 C11.5609185,11.3405871 11.6107483,11.2205888 11.6107483,11.0735407 L11.6107483,4.92645933 C11.6107483,4.7794112 11.5609185,4.65941291 11.4520049,4.5482766 C11.3453188,4.43941327 11.2259343,4.38925171 11.0735407,4.38925171 Z" id="Path" stroke="#666666" stroke-width="0.7"></path>
    </g>
</svg>