<?xml version="1.0" encoding="UTF-8"?>
<svg width="16px" height="17px" viewBox="0 0 16 17" version="1.1" xmlns="http://www.w3.org/2000/svg" xmlns:xlink="http://www.w3.org/1999/xlink">
    <!-- Generator: Sketch 52.3 (67297) - http://www.bohemiancoding.com/sketch -->
    <title>icon-text</title>
    <desc>Created with Sketch.</desc>
    <g id="icon-text" stroke="none" stroke-width="1" fill="none" fill-rule="evenodd" transform="translate(0.000000, 0.714286)">
        <path d="M4.59870099,8.41176588 L4.12488819,6.50523344 L3.61723162,8.41176588 L4.59870099,8.41176588 Z M5.06123253,10.2562514 L4.78484173,9.15632885 L3.41980962,9.15632885 L3.12649694,10.2562514 L2.24091825,10.2562514 L3.53826282,5.74374858 L4.68331041,5.74374858 L5.98065498,10.2562514 L5.06123253,10.2562514 Z M6.44882715,10.2562514 L6.44882715,5.74374858 L8.10717194,5.74374858 C8.60354974,5.74374858 8.97018693,5.83023735 9.20709451,6.00321749 C9.44400209,6.17619763 9.56245411,6.44318472 9.56245411,6.80418675 L9.56245411,7.01289 C9.56245411,7.24227671 9.50886867,7.41901464 9.40169619,7.54310909 C9.29452372,7.66720354 9.13000703,7.74805174 8.9081412,7.78565612 L8.9081412,7.94923434 C9.16009053,7.97555741 9.35563037,8.06486647 9.49476656,8.2171642 C9.63390276,8.36946193 9.70346982,8.56218148 9.70346982,8.79532863 L9.70346982,9.07736005 C9.70346982,9.4797269 9.57373666,9.77679703 9.31426645,9.96857936 C9.05479624,10.1603617 8.65243543,10.2562514 8.10717194,10.2562514 L6.44882715,10.2562514 Z M7.407734,7.58259349 L8.04512503,7.58259349 C8.24818867,7.58259349 8.39390345,7.54780996 8.48227374,7.47824186 C8.57064403,7.40867376 8.61482851,7.29304203 8.61482851,7.1313432 L8.61482851,6.8944368 C8.61482851,6.73273798 8.57064403,6.61804634 8.48227374,6.55035846 C8.39390345,6.48267058 8.24818867,6.44882715 8.04512503,6.44882715 L7.407734,6.44882715 L7.407734,7.58259349 Z M7.407734,9.55117285 L8.06204691,9.55117285 C8.31023581,9.55117285 8.48603364,9.51074875 8.58944568,9.42989934 C8.69285772,9.34904992 8.74456297,9.2127361 8.74456297,9.02095377 L8.74456297,8.76148485 C8.74456297,8.57346296 8.69285772,8.43902933 8.58944568,8.35817991 C8.48603364,8.2773305 8.31023581,8.2369064 8.06204691,8.2369064 L7.407734,8.2369064 L7.407734,9.55117285 Z M12.0612526,10.3126577 C11.4934264,10.3126577 11.0685033,10.187625 10.7864705,9.93755591 C10.5044377,9.68748679 10.3634234,9.31238874 10.3634234,8.81225051 L10.3634234,7.210312 C10.3634234,6.7026529 10.5053778,6.32191428 10.7892908,6.06808472 C11.0732039,5.81425517 11.4990671,5.6873423 12.0668932,5.6873423 C12.6384797,5.6873423 13.0568222,5.81331507 13.321933,6.06526441 C13.5870439,6.31721374 13.7327587,6.72709532 13.7590817,7.29492143 L12.8001749,7.35132772 C12.7738518,6.98656525 12.7108654,6.74214045 12.6112138,6.61804601 C12.5115622,6.49395156 12.3282436,6.43190526 12.0612526,6.43190526 C11.7942615,6.43190526 11.6043622,6.49771194 11.4915491,6.62932726 C11.3787359,6.76094259 11.3223302,6.98280509 11.3223302,7.29492143 L11.3223302,8.73328171 C11.3223302,9.03411674 11.3787359,9.24845848 11.4915491,9.37631337 C11.6043622,9.50416825 11.7942615,9.56809474 12.0612526,9.56809474 C12.3244832,9.56809474 12.5068617,9.50792863 12.6083935,9.38759462 C12.7099253,9.26726061 12.7738518,9.02847639 12.8001749,8.6712348 L13.7590817,8.72764108 C13.7327587,9.28794632 13.5870439,9.69218732 13.321933,9.94037622 C13.0568222,10.1885651 12.6365995,10.3126577 12.0612526,10.3126577 Z" id="ABC" fill="#666666"></path>
    </g>
</svg>