<?xml version="1.0" encoding="UTF-8"?>
<svg width="16px" height="17px" viewBox="0 0 16 17" version="1.1" xmlns="http://www.w3.org/2000/svg" xmlns:xlink="http://www.w3.org/1999/xlink">
    <!-- Generator: Sketch 52.3 (67297) - http://www.bohemiancoding.com/sketch -->
    <title>icon-radio</title>
    <desc>Created with Sketch.</desc>
    <g id="icon-radio" stroke="none" stroke-width="1" fill="none" fill-rule="evenodd" transform="translate(0.000000, 0.285714)">
        <path d="M8,11.3179549 C8.59604278,11.3179549 9.15234103,11.1656351 9.66891144,10.860991 C10.1722365,10.5695924 10.5695924,10.1722365 10.860991,9.66891144 C11.1656351,9.15234103 11.3179549,8.59604278 11.3179549,8 C11.3179549,7.40395722 11.1656351,6.84765897 10.860991,6.33108856 C10.5695924,5.82776354 10.1722365,5.43040765 9.66891144,5.13900896 C9.15234103,4.83436487 8.59604278,4.68204511 8,4.68204511 C7.40395722,4.68204511 6.84765897,4.83436487 6.33108856,5.13900896 C5.82776354,5.43040765 5.43040765,5.82776354 5.13900896,6.33108856 C4.83436487,6.84765897 4.68204511,7.40395722 4.68204511,8 C4.68204511,8.59604278 4.83436487,9.15234103 5.13900896,9.66891144 C5.43040765,10.1722365 5.82776354,10.5695924 6.33108856,10.860991 C6.84765897,11.1656351 7.40395722,11.3179549 8,11.3179549 Z M8,3.86745738 C8.75498752,3.86745738 9.45367164,4.05620143 10.0960733,4.43369519 C10.7186069,4.79132086 11.2086791,5.28139313 11.5663048,5.9039267 C11.9437986,6.54632836 12.1325426,7.24501248 12.1325426,8 C12.1325426,8.75498752 11.9437986,9.45367164 11.5663048,10.0960733 C11.2086791,10.7186069 10.7186069,11.2086791 10.0960733,11.5663048 C9.45367164,11.9437986 8.75498752,12.1325426 8,12.1325426 C7.24501248,12.1325426 6.54632836,11.9437986 5.9039267,11.5663048 C5.28139313,11.2020564 4.79132086,10.7086729 4.43369519,10.0861393 C4.05620143,9.44373764 3.86745738,8.74836483 3.86745738,8 C3.86745738,7.25163517 4.05620143,6.55626236 4.43369519,5.9138607 C4.79794356,5.29132713 5.29132713,4.79794356 5.9138607,4.43369519 C6.55626236,4.05620143 7.25163517,3.86745738 8,3.86745738 Z M8,5.92379469 C8.37749376,5.92379469 8.72518017,6.01651107 9.04306965,6.2019466 C9.36095913,6.38738213 9.61261787,6.63904087 9.7980534,6.95693035 C9.98348893,7.27481983 10.0762053,7.62250624 10.0762053,8 C10.0762053,8.37749376 9.98348893,8.72518017 9.7980534,9.04306965 C9.61261787,9.36095913 9.36095913,9.61261787 9.04306965,9.7980534 C8.72518017,9.98348893 8.37749376,10.0762053 8,10.0762053 C7.62250624,10.0762053 7.27481983,9.98348893 6.95693035,9.7980534 C6.63904087,9.61261787 6.38738213,9.36095913 6.2019466,9.04306965 C6.01651107,8.72518017 5.92379469,8.37749376 5.92379469,8 C5.92379469,7.62250624 6.01651107,7.27481983 6.2019466,6.95693035 C6.38738213,6.63904087 6.63904087,6.38738213 6.95693035,6.2019466 C7.27481983,6.01651107 7.62250624,5.92379469 8,5.92379469 Z" id="radio_button_checked---material" fill="#666666"></path>
    </g>
</svg>