<?xml version="1.0" encoding="UTF-8"?>
<svg width="16px" height="17px" viewBox="0 0 16 17" version="1.1" xmlns="http://www.w3.org/2000/svg" xmlns:xlink="http://www.w3.org/1999/xlink">
    <!-- Generator: Sketch 52.3 (67297) - http://www.bohemiancoding.com/sketch -->
    <title>icon-numeric</title>
    <desc>Created with Sketch.</desc>
    <g id="icon-numeric" stroke="none" stroke-width="1" fill="none" fill-rule="evenodd" transform="translate(0.000000, 0.142857)">
        <path d="M2.78316016,10.1702922 L2.78316016,9.45409576 L3.90086063,9.45409576 L3.90086063,6.70867615 L3.74351445,6.70867615 C3.66393667,6.94379231 3.53191188,7.12464819 3.34743613,7.2512492 C3.16296037,7.37785021 2.95135899,7.4393412 2.71262566,7.43572403 L2.65836836,6.71410188 C2.94050775,6.70325036 3.19370597,6.6182481 3.41797062,6.45909255 C3.64223527,6.29993699 3.80862267,6.09014418 3.91713782,5.82970781 L4.82323481,5.82970781 L4.82323481,9.45409576 L5.79444057,9.45409576 L5.79444057,10.1702922 L2.78316016,10.1702922 Z M6.38584519,10.1702922 L6.38584519,9.2641952 C6.38584519,8.92056388 6.45999609,8.65380147 6.60830014,8.46389995 C6.75660418,8.27399844 7.02427087,8.1048982 7.41130824,7.95659416 L7.99728713,7.73956494 C8.19261441,7.6672215 8.33639483,7.59578343 8.42863271,7.52524858 C8.52087059,7.45471374 8.56698883,7.3290189 8.56698883,7.14816032 L8.56698883,7.02336852 C8.56698883,6.80995538 8.51996631,6.66165357 8.42591984,6.57845862 C8.33187338,6.49526367 8.17814588,6.45366682 7.96473275,6.45366682 C7.75855396,6.45366682 7.61206071,6.5024979 7.52524858,6.60016154 C7.43843646,6.69782518 7.3841797,6.89495808 7.36247667,7.19156616 L6.44010249,7.13730886 C6.46903986,6.65260784 6.60106465,6.30446029 6.83618082,6.09285574 C7.07129698,5.88125119 7.44566864,5.77545051 7.95930702,5.77545051 C8.48741409,5.77545051 8.87444566,5.88125119 9.12041334,6.09285574 C9.36638102,6.30446029 9.48936301,6.61101099 9.48936301,7.01251706 L9.48936301,7.26752639 C9.48936301,7.58222033 9.3980308,7.82095008 9.21536362,7.98372281 C9.03269645,8.14649554 8.7894453,8.283946 8.48560288,8.39607832 L7.89419826,8.61310754 C7.65184775,8.71077118 7.49359886,8.79577344 7.41944684,8.86811687 C7.34529482,8.94046031 7.30821937,9.06886798 7.30821937,9.25334374 L7.30821937,9.45409576 L9.54362032,9.45409576 L9.54362032,10.1702922 L6.38584519,10.1702922 Z M11.7573183,10.2245495 C11.1930396,10.2245495 10.7870181,10.1169402 10.5392419,9.90171853 C10.2914656,9.68649681 10.1549194,9.36366908 10.1295992,8.93322564 L11.0519734,8.87896834 C11.0809108,9.15749056 11.1442103,9.33382504 11.241874,9.40797706 C11.3395376,9.48212908 11.5185849,9.51920453 11.7790213,9.51920453 C12.0105203,9.51920453 12.1750991,9.47579912 12.2727627,9.388987 C12.3704264,9.30217488 12.4192575,9.1611073 12.4192575,8.96578002 L12.4192575,8.8192853 C12.4192575,8.61310651 12.365905,8.46570897 12.2591984,8.37708827 C12.1524918,8.28846756 11.9870087,8.24415787 11.7627441,8.24415787 L11.1821909,8.24415787 L11.1821909,7.53881291 L11.7627441,7.53881291 C11.9653057,7.53881291 12.1072776,7.50897169 12.1886639,7.44928836 C12.2700503,7.38960502 12.3107429,7.28018722 12.3107429,7.12103166 L12.3107429,6.94740829 C12.3107429,6.78101839 12.2664332,6.66165351 12.1778125,6.58931008 C12.0891918,6.51696664 11.9417942,6.48079547 11.7356154,6.48079547 C11.5475225,6.48079547 11.4109763,6.51967948 11.3259728,6.59744867 C11.2409692,6.67521787 11.1858082,6.81538117 11.160488,7.01794279 L10.2381138,6.96368548 C10.263434,6.54047639 10.3909374,6.23663852 10.6206278,6.05216276 C10.8503182,5.867687 11.2129342,5.77545051 11.7084868,5.77545051 C12.2257423,5.77545051 12.6091568,5.86045277 12.8587416,6.03045984 C13.1083265,6.20046691 13.233117,6.47898496 13.233117,6.86602233 L13.233117,6.9853884 C13.233117,7.22773891 13.1562533,7.4167333 13.0025235,7.55237724 C12.8487937,7.68802118 12.6543736,7.76850204 12.4192575,7.79382224 L12.4192575,7.95116843 C12.6760767,7.97287146 12.894008,8.06601223 13.073058,8.23059354 C13.252108,8.39517486 13.3416316,8.61129763 13.3416316,8.87896834 L13.3416316,8.98748294 C13.3416316,9.43239507 13.2077983,9.74979713 12.9401276,9.93969864 C12.6724569,10.1296002 12.2781911,10.2245495 11.7573183,10.2245495 Z" id="123" fill="#666666"></path>
    </g>
</svg>