<?xml version="1.0" encoding="UTF-8"?>
<svg width="38px" height="18px" viewBox="0 0 38 18" version="1.1" xmlns="http://www.w3.org/2000/svg" xmlns:xlink="http://www.w3.org/1999/xlink">
    <!-- Generator: Sketch 47.1 (45422) - http://www.bohemiancoding.com/sketch -->
    <desc>Created with Sketch.</desc>
    <defs></defs>
    <g id="Page-1" stroke="none" stroke-width="1" fill="none" fill-rule="evenodd" opacity="0.871886322">
        <g id="Artboard">
            <g id="Group-4" transform="translate(0.000000, -3.000000)">
                <g id="ic_arrow_drop_down_black_24px-(1)" transform="translate(21.000000, 0.000000)">
                    <polygon id="Shape" fill="#111111" fill-rule="nonzero" points="7 10 12 15 17 10"></polygon>
                    <polygon id="Shape" points="0 0 24 0 24 24 0 24"></polygon>
                </g>
                <g id="ic_piping">
                    <polygon id="Shape" points="0 0 24 0 24 24 0 24"></polygon>
                    <polygon id="Path" fill="#111111" fill-rule="nonzero" points="0 21 2 21 2 3 0 3"></polygon>
                    <polygon id="Path" fill="#111111" fill-rule="nonzero" points="22 21 24 21 24 3 22 3"></polygon>
                    <polygon id="Path" fill="#111111" fill-rule="nonzero" transform="translate(22.000000, 4.000000) rotate(90.000000) translate(-22.000000, -4.000000) " points="21 6 23 6 23 2 21 2"></polygon>
                    <polygon id="Path" fill="#111111" fill-rule="nonzero" transform="translate(22.000000, 20.000000) rotate(90.000000) translate(-22.000000, -20.000000) " points="21 22 23 22 23 18 21 18"></polygon>
                    <polygon id="Path" fill="#111111" fill-rule="nonzero" transform="translate(2.000000, 4.000000) rotate(90.000000) translate(-2.000000, -4.000000) " points="1 6 3 6 3 2 1 2"></polygon>
                    <polygon id="Path" fill="#111111" fill-rule="nonzero" transform="translate(2.000000, 20.000000) rotate(90.000000) translate(-2.000000, -20.000000) " points="1 22 3 22 3 18 1 18"></polygon>
                    <path d="M11.2155165,5.99686718 L6.5,18 L8.42907492,18 L9.38932554,15.4279001 L14.747867,15.4279001 L15.7081176,18 L17.6371925,18 L12.9302497,5.99686718 L11.2155165,5.99686718 Z M12.0728831,8.28603608 L14.1134157,13.7131668 L10.0323505,13.7131668 L12.0728831,8.28603608 Z" id="Shape" fill="#111111" fill-rule="nonzero"></path>
                </g>
            </g>
        </g>
    </g>
</svg>