<?xml version="1.0" encoding="UTF-8"?>
<svg width="32px" height="32px" viewBox="0 0 32 32" version="1.1" xmlns="http://www.w3.org/2000/svg" xmlns:xlink="http://www.w3.org/1999/xlink">
    <!-- Generator: Sketch 46.2 (44496) - http://www.bohemiancoding.com/sketch -->
    <title>Artboard Copy</title>
    <desc>Created with Sketch.</desc>
    <defs></defs>
    <g id="Page-2" stroke="none" stroke-width="1" fill="none" fill-rule="evenodd">
        <g id="Artboard-Copy" fill-rule="nonzero" fill="#000000">
            <path d="M19.6,15.79 C20.57,15.12 21.25,14.02 21.25,13 C21.25,10.74 19.5,9 17.25,9 L11,9 L11,23 L18.04,23 C20.13,23 21.75,21.3 21.75,19.21 C21.75,17.69 20.89,16.39 19.6,15.79 Z M14,11.5 L17,11.5 C17.83,11.5 18.5,12.17 18.5,13 C18.5,13.83 17.83,14.5 17,14.5 L14,14.5 L14,11.5 Z M17.5,20.5 L14,20.5 L14,17.5 L17.5,17.5 C18.33,17.5 19,18.17 19,19 C19,19.83 18.33,20.5 17.5,20.5 Z" id="Shape"></path>
        </g>
    </g>
</svg>