<?xml version="1.0" encoding="UTF-8"?>
<svg width="32px" height="32px" viewBox="0 0 32 32" version="1.1" xmlns="http://www.w3.org/2000/svg" xmlns:xlink="http://www.w3.org/1999/xlink">
    <!-- Generator: Sketch 46.2 (44496) - http://www.bohemiancoding.com/sketch -->
    <desc>Created with Sketch.</desc>
    <defs></defs>
    <g id="Page-3" stroke="none" stroke-width="1" fill="none" fill-rule="evenodd">
        <g id="Artboard-Copy-2" fill="#111111">
            <g id="Group" transform="translate(6.000000, 6.000000)">
                <path d="M9,0 L10.7706093,0 L10.7706093,0 C11.8751788,-2.02906125e-16 12.7706093,0.8954305 12.7706093,2 L12.7706093,12.2625448 L7,12.2625448 L7,2 L7,2 C7,0.8954305 7.8954305,2.02906125e-16 9,0 L9,0 Z M7,13.715522 L12.7706093,13.715522 L11.327957,15.8795005 L11.327957,16.6008266 L8.44265233,17.3221528 L8.44265233,15.8795005 L7,13.715522 Z" id="Combined-Shape" transform="translate(9.885305, 8.661076) rotate(-315.000000) translate(-9.885305, -8.661076) "></path>
                <polygon id="Shape" fill-rule="nonzero" points="0 16 20 16 20 19.3333333 0 19.3333333"></polygon>
            </g>
        </g>
    </g>
</svg>
