<?xml version="1.0" encoding="UTF-8"?>
<svg width="32px" height="32px" viewBox="0 0 32 32" version="1.1" xmlns="http://www.w3.org/2000/svg" xmlns:xlink="http://www.w3.org/1999/xlink">
    <!-- Generator: Sketch 46.2 (44496) - http://www.bohemiancoding.com/sketch -->
    <title>Artboard 2</title>
    <desc>Created with Sketch.</desc>
    <defs></defs>
    <g id="Page-1" stroke="none" stroke-width="1" fill="none" fill-rule="evenodd">
        <g id="Artboard-2" fill-rule="nonzero" fill="#000000">
            <path d="M8.5,15 C7.67,15 7,15.67 7,16.5 C7,17.33 7.67,18 8.5,18 C9.33,18 10,17.33 10,16.5 C10,15.67 9.33,15 8.5,15 Z M8.5,9 C7.67,9 7,9.67 7,10.5 C7,11.33 7.67,12 8.5,12 C9.33,12 10,11.33 10,10.5 C10,9.67 9.33,9 8.5,9 Z M8.5,21 C7.67,21 7,21.68 7,22.5 C7,23.32 7.68,24 8.5,24 C9.32,24 10,23.32 10,22.5 C10,21.68 9.33,21 8.5,21 Z M11.5,23.5 L25.5,23.5 L25.5,21.5 L11.5,21.5 L11.5,23.5 Z M11.5,17.5 L25.5,17.5 L25.5,15.5 L11.5,15.5 L11.5,17.5 Z M11.5,9.5 L11.5,11.5 L25.5,11.5 L25.5,9.5 L11.5,9.5 Z" id="Shape"></path>
        </g>
    </g>
</svg>