<?xml version="1.0" encoding="UTF-8"?>
<svg width="32px" height="32px" viewBox="0 0 32 32" version="1.1" xmlns="http://www.w3.org/2000/svg" xmlns:xlink="http://www.w3.org/1999/xlink">
    <!-- Generator: Sketch 51.3 (57544) - http://www.bohemiancoding.com/sketch -->
    <title>icon-launch</title>
    <desc>Created with Sketch.</desc>
    <defs></defs>
    <g id="icon-launch" stroke="none" stroke-width="1" fill="none" fill-rule="evenodd">
        <path d="M21.9301175,10.3928612 C21.9301175,9.83091855 21.4742018,9.37500283 20.9122591,9.37500283 C20.3503165,9.37500283 19.8944008,9.83091855 19.8944008,10.3928612 C19.8944008,10.9548038 20.3503165,11.4107195 20.9122591,11.4107195 C21.4742018,11.4107195 21.9301175,10.9548038 21.9301175,10.3928612 Z M24.3051203,7.33928612 C24.3051203,10.8593796 23.3296727,13.2025744 20.8168349,15.7260149 C20.2018788,16.3303683 19.5021012,16.955927 18.7493101,17.5920885 L18.5372563,21.6105085 C18.5266536,21.7165354 18.4630375,21.8225623 18.3676132,21.8861785 L14.2961798,24.2611813 C14.2431664,24.2929894 14.1901529,24.3035921 14.1265368,24.3035921 C14.0417152,24.3035921 13.9568937,24.271784 13.8826749,24.2081678 L13.2041026,23.5295956 C13.1192811,23.4341714 13.087473,23.3069391 13.1192811,23.1903095 L14.0205098,20.2639667 L11.0411536,17.2846105 L8.11481084,18.1858392 C8.08300277,18.1964419 8.0511947,18.1964419 8.01938662,18.1964419 C7.93456509,18.1964419 7.83914087,18.1646338 7.77552473,18.1010177 L7.09695249,17.4224455 C6.99092558,17.3058159 6.96972019,17.1361728 7.04393903,17.0089405 L9.41894186,12.9375071 C9.48255801,12.8420829 9.58858492,12.7784667 9.69461183,12.767864 L13.7130318,12.5558102 C14.3491933,11.8030191 14.9747521,11.1032415 15.5791055,10.4882854 C18.2297783,7.8482153 20.2548923,7 23.9446288,7 C24.1354773,7 24.3051203,7.14843768 24.3051203,7.33928612 Z" id="rocket---FontAwesome" fill="#4A4A4A"></path>
    </g>
</svg>