<?xml version="1.0" encoding="UTF-8"?>
<svg width="25px" height="25px" viewBox="0 0 25 25" version="1.1" xmlns="http://www.w3.org/2000/svg" xmlns:xlink="http://www.w3.org/1999/xlink">
    <!-- Generator: Sketch 49.2 (51160) - http://www.bohemiancoding.com/sketch -->
    <title>icon-share</title>
    <desc>Created with Sketch.</desc>
    <defs></defs>
    <g id="icon-share" stroke="none" stroke-width="1" fill="none" fill-rule="evenodd">
        <path d="M21.8635478,8.67387295 L16.7621726,13.4430313 C16.2244492,13.945777 15.3281847,13.5730402 15.3281847,12.8311088 L15.3281847,10.3072794 C10.2065461,10.3412985 8.04591065,11.5387347 9.49095135,16.3168362 C9.64976378,16.8419575 9.03587565,17.248573 8.60510182,16.9246203 C7.22467719,15.8865125 5.97585821,13.9008859 5.97585821,11.8966014 C5.97585821,6.84855683 10.1418591,5.84681789 15.3281847,5.81834007 L15.3281847,3.29268698 C15.3281847,2.55008921 16.2250515,2.17854482 16.7621726,2.68076453 L21.8635478,7.45002805 C22.2185111,7.78190689 22.2187946,8.34171353 21.8635478,8.67387295 Z M15.3281847,15.7470343 L15.3281847,18.1624586 L3.99203139,18.1624586 L3.99203139,6.93967182 L5.79575507,6.93967182 C5.91142885,6.93959894 6.02206914,6.89282414 6.10211461,6.81015385 C6.6318318,6.26416527 7.24412578,5.83201784 7.90930999,5.488811 C8.30359557,5.28536291 8.1575009,4.69511447 7.71287571,4.69511447 L3.42522372,4.69511447 C2.48609428,4.69511447 1.72480074,5.44879474 1.72480074,6.37853248 L1.72480074,18.7235979 C1.72480074,19.6533357 2.48609428,20.4070159 3.42522372,20.4070159 L15.8949923,20.4070159 C16.8341217,20.4070159 17.5954153,19.6533357 17.5954153,18.7235979 L17.5954153,15.6090642 C17.5954153,15.318394 17.3050327,15.1157525 17.028218,15.2126894 C16.6401175,15.3485755 16.2245103,15.3892163 15.8170563,15.3311248 C15.559513,15.2944404 15.3281847,15.4894362 15.3281847,15.7470343 Z" id="Shape" fill="#FFFFFF" fill-rule="nonzero"></path>
    </g>
</svg>