<?xml version="1.0" encoding="UTF-8"?>
<svg width="25px" height="18px" viewBox="0 0 22 16" version="1.1" xmlns="http://www.w3.org/2000/svg" xmlns:xlink="http://www.w3.org/1999/xlink">

    <g id="Page-1" stroke="none" stroke-width="1" fill="none" fill-rule="evenodd">
        <g id="icon-view" fill-rule="nonzero" fill="#FFFFFF">
            <path d="M11,0 C6,0 1.73,3.31733333 0,8 C1.73,12.6826667 6,16 11,16 C16,16 20.27,12.6826667 22,8 C20.27,3.31733333 16,0 11,0 Z M11,13 C8.24,13 6,10.76 6,8 C6,5.24 8.24,3 11,3 C13.76,3 16,5.24 16,8 C16,10.76 13.76,13 11,13 Z M11,5 C9.34,5 8,6.34 8,8 C8,9.66 9.34,11 11,11 C12.66,11 14,9.66 14,8 C14,6.34 12.66,5 11,5 Z" id="Shape"></path>
        </g>
    </g>
</svg>
