<?xml version="1.0" encoding="UTF-8"?>
<svg width="25px" height="25px" viewBox="0 0 25 25" version="1.1" xmlns="http://www.w3.org/2000/svg" xmlns:xlink="http://www.w3.org/1999/xlink">
    <!-- Generator: Sketch 49.2 (51160) - http://www.bohemiancoding.com/sketch -->
    <title>icon-share</title>
    <desc>Created with Sketch.</desc>
    <defs></defs>
    <g id="icon-share" stroke="none" stroke-width="1" fill="none" fill-rule="evenodd">
        <path d="M23.6250661,8.71083348 L18.5236909,13.4799918 C17.9859675,13.9827375 17.0897029,13.6100008 17.0897029,12.8680694 L17.0897029,10.34424 C11.9680643,10.378259 9.80742892,11.5756953 11.2524696,16.3537967 C11.4112821,16.878918 10.7973939,17.2855336 10.3666201,16.9615809 C8.98619546,15.923473 7.73737648,13.9378464 7.73737648,11.9335619 C7.73737648,6.88551736 11.9033774,5.88377842 17.0897029,5.8553006 L17.0897029,3.32964752 C17.0897029,2.58704974 17.9865698,2.21550536 18.5236909,2.71772507 L23.6250661,7.48698858 C23.9800294,7.81886743 23.9803128,8.37867407 23.6250661,8.71083348 Z M17.0897029,15.7839949 L17.0897029,18.1994191 L5.75354967,18.1994191 L5.75354967,6.97663236 L7.55727335,6.97663236 C7.67294712,6.97655948 7.78358742,6.92978468 7.86363289,6.84711439 C8.39335008,6.30112581 9.00564405,5.86897838 9.67082826,5.52577153 C10.0651138,5.32232345 9.91901918,4.732075 9.47439399,4.732075 L5.186742,4.732075 C4.24761255,4.732075 3.48631901,5.48575528 3.48631901,6.41549302 L3.48631901,18.7605585 C3.48631901,19.6902962 4.24761255,20.4439765 5.186742,20.4439765 L17.6565106,20.4439765 C18.59564,20.4439765 19.3569335,19.6902962 19.3569335,18.7605585 L19.3569335,15.6460247 C19.3569335,15.3553545 19.0665509,15.1527131 18.7897363,15.2496499 C18.4016358,15.3855361 17.9860286,15.4261768 17.5785745,15.3680854 C17.3210313,15.3314009 17.0897029,15.5263968 17.0897029,15.7839949 Z" id="Shape" fill="#FFFFFF" fill-rule="nonzero"></path>
    </g>
</svg>