<?xml version="1.0" encoding="UTF-8"?>
<svg width="25px" height="25px" viewBox="0 0 25 25" version="1.1" xmlns="http://www.w3.org/2000/svg" xmlns:xlink="http://www.w3.org/1999/xlink">
    <!-- Generator: Sketch 49.2 (51160) - http://www.bohemiancoding.com/sketch -->
    <title>preview</title>
    <desc>Created with Sketch.</desc>
    <defs></defs>
    <g id="preview" stroke="none" stroke-width="1" fill="none" fill-rule="evenodd">
        <path d="M12.5,4.5 C7.5,4.5 3.23,7.81733333 1.5,12.5 C3.23,17.1826667 7.5,20.5 12.5,20.5 C17.5,20.5 21.77,17.1826667 23.5,12.5 C21.77,7.81733333 17.5,4.5 12.5,4.5 Z M12.5,17.5 C9.74,17.5 7.5,15.26 7.5,12.5 C7.5,9.74 9.74,7.5 12.5,7.5 C15.26,7.5 17.5,9.74 17.5,12.5 C17.5,15.26 15.26,17.5 12.5,17.5 Z M12.5,9.5 C10.84,9.5 9.5,10.84 9.5,12.5 C9.5,14.16 10.84,15.5 12.5,15.5 C14.16,15.5 15.5,14.16 15.5,12.5 C15.5,10.84 14.16,9.5 12.5,9.5 Z" id="Shape" fill="#FFFFFF" fill-rule="nonzero"></path>
    </g>
</svg>