<?xml version="1.0" encoding="UTF-8"?>
<svg width="25px" height="22px" viewBox="0 0 25 22" version="1.1" xmlns="http://www.w3.org/2000/svg" xmlns:xlink="http://www.w3.org/1999/xlink">
    <!-- Generator: Sketch 49.1 (51147) - http://www.bohemiancoding.com/sketch -->
    <desc>Created with Sketch.</desc>
    <defs></defs>
    <g id="Page-1" stroke="none" stroke-width="1" fill="none" fill-rule="evenodd">
        <g id="Artboard-2" fill="#FFFFFF" fill-rule="nonzero">
            <g id="share-square">
                <path d="M24.6736979,7.6247251 L18.4235677,13.467828 C17.7647569,14.0837847 16.6666667,13.6271131 16.6666667,12.7181096 L16.6666667,9.62595078 C10.3917101,9.66763045 7.74453125,11.1347118 9.51497395,16.9887717 C9.70954861,17.6321426 8.95742187,18.130322 8.42964409,17.7334199 C6.73836805,16.4615454 5.20833333,14.0287848 5.20833333,11.5731648 C5.20833333,5.38837453 10.3124566,4.16105866 16.6666667,4.12616805 L16.6666667,1.03177489 C16.6666667,0.121954977 17.7654948,-0.333255759 18.4235677,0.282056469 L24.6736979,6.12528826 C25.1085937,6.53190136 25.108941,7.21776825 24.6736979,7.6247251 Z M16.6666667,16.2906588 L16.6666667,19.2500012 L2.77777778,19.2500012 L2.77777778,5.50000729 L4.98767361,5.50000729 C5.12939542,5.499918 5.26495029,5.4426102 5.36302083,5.34132377 C6.01202257,4.67238656 6.76219618,4.14292586 7.57717013,3.72243386 C8.06024305,3.47317225 7.88125,2.7500085 7.33650173,2.7500085 L2.08333333,2.7500085 C0.932725694,2.7500085 0,3.67340653 0,4.81250759 L0,19.9375009 C0,21.076602 0.932725694,22 2.08333333,22 L17.3611111,22 C18.5117187,22 19.4444444,21.076602 19.4444444,19.9375009 L19.4444444,16.1216198 C19.4444444,15.7654949 19.0886719,15.5172216 18.7495226,15.6359872 C18.2740276,15.8024729 17.7648317,15.8522654 17.265625,15.7810926 C16.9500868,15.7361473 16.6666667,15.9750534 16.6666667,16.2906588 Z" id="Shape"></path>
            </g>
        </g>
    </g>
</svg>