<?xml version="1.0" encoding="UTF-8"?>
<svg width="57px" height="19px" viewBox="0 0 57 19" version="1.1" xmlns="http://www.w3.org/2000/svg" xmlns:xlink="http://www.w3.org/1999/xlink">
    <g id="Page-1" stroke="none" stroke-width="1" fill="none" fill-rule="evenodd">
        <g id="Artboard">
            <path d="M35.828,10.24 C35.828,11.0933376 35.6893347,11.8733298 35.412,12.58 C35.1346653,13.2866702 34.7440025,13.8933308 34.24,14.4 C33.7359975,14.9066692 33.1306702,15.2999986 32.424,15.58 C31.7173298,15.8600014 30.9320043,16 30.068,16 L25.716,16 L25.716,4.48 L30.068,4.48 C30.9320043,4.48 31.7173298,4.6199986 32.424,4.9 C33.1306702,5.1800014 33.7359975,5.5733308 34.24,6.08 C34.7440025,6.5866692 35.1346653,7.1933298 35.412,7.9 C35.6893347,8.6066702 35.828,9.3866624 35.828,10.24 Z M33.916,10.24 C33.916,9.57866336 33.8266676,8.98400264 33.648,8.456 C33.4693324,7.92799736 33.213335,7.48266848 32.88,7.12 C32.546665,6.75733152 32.142669,6.47866764 31.668,6.284 C31.193331,6.08933236 30.660003,5.992 30.068,5.992 L27.596,5.992 L27.596,14.488 L30.068,14.488 C30.660003,14.488 31.193331,14.392001 31.668,14.2 C32.142669,14.007999 32.546665,13.7293352 32.88,13.364 C33.213335,12.9986648 33.4693324,12.553336 33.648,12.028 C33.8266676,11.502664 33.916,10.90667 33.916,10.24 Z M41.584,12.432 C40.9706636,12.4533334 40.4533354,12.5026663 40.032,12.58 C39.6106646,12.6573337 39.2693346,12.7559994 39.008,12.876 C38.7466654,12.9960006 38.5586672,13.1386658 38.444,13.304 C38.3293328,13.4693342 38.272,13.6506657 38.272,13.848 C38.272,14.040001 38.3026664,14.2039993 38.364,14.34 C38.4253336,14.4760007 38.5106661,14.5879996 38.62,14.676 C38.7293339,14.7640004 38.8573326,14.8279998 39.004,14.868 C39.1506674,14.9080002 39.3119991,14.928 39.488,14.928 C39.9360022,14.928 40.3213317,14.8440008 40.644,14.676 C40.9666683,14.5079992 41.2799985,14.2640016 41.584,13.944 L41.584,12.432 Z M37.024,8.976 C37.9466713,8.11732904 39.045327,7.688 40.32,7.688 C40.7893357,7.688 41.2066648,7.76399924 41.572,7.916 C41.9373352,8.06800076 42.2439988,8.28266528 42.492,8.56 C42.7400012,8.83733472 42.9293327,9.16666476 43.06,9.548 C43.1906673,9.92933524 43.256,10.3519977 43.256,10.816 L43.256,16 L42.488,16 C42.3226658,16 42.1973338,15.9746669 42.112,15.924 C42.0266662,15.8733331 41.954667,15.7706674 41.896,15.616 L41.728,14.952 C41.519999,15.1386676 41.3146677,15.3053326 41.112,15.452 C40.9093323,15.5986674 40.7000011,15.7226662 40.484,15.824 C40.2679989,15.9253338 40.0360012,16.0013331 39.788,16.052 C39.5399988,16.1026669 39.2666682,16.128 38.968,16.128 C38.6373317,16.128 38.3293348,16.0826671 38.044,15.992 C37.7586652,15.9013329 37.512001,15.7640009 37.304,15.58 C37.095999,15.3959991 36.9320006,15.1680014 36.812,14.896 C36.6919994,14.6239986 36.632,14.3040018 36.632,13.936 C36.632,13.6213318 36.7159992,13.3146682 36.884,13.016 C37.0520008,12.7173318 37.3293314,12.4493345 37.716,12.212 C38.1026686,11.9746655 38.6119968,11.7786674 39.244,11.624 C39.8760032,11.4693326 40.6559954,11.3813334 41.584,11.36 L41.584,10.816 C41.584,10.2293304 41.4586679,9.79200144 41.208,9.504 C40.9573321,9.21599856 40.5893358,9.072 40.104,9.072 C39.7733317,9.072 39.4960011,9.11333292 39.272,9.196 C39.0479989,9.27866708 38.8533342,9.36799952 38.688,9.464 C38.5226658,9.56000048 38.3760006,9.64933292 38.248,9.732 C38.1199994,9.81466708 37.9840007,9.856 37.84,9.856 C37.7226661,9.856 37.6226671,9.82533364 37.54,9.764 C37.4573329,9.70266636 37.3893336,9.62666712 37.336,9.536 L37.024,8.976 Z M46.844,8.808 C47.1800017,8.47733168 47.547998,8.212001 47.948,8.012 C48.348002,7.811999 48.814664,7.712 49.348,7.712 C49.7960022,7.712 50.1893316,7.78666592 50.528,7.936 C50.8666684,8.08533408 51.1519988,8.29599864 51.384,8.568 C51.6160012,8.84000136 51.7906661,9.16666476 51.908,9.548 C52.0253339,9.92933524 52.084,10.349331 52.084,10.808 L52.084,16 L50.372,16 L50.372,10.808 C50.372,10.2586639 50.2453346,9.83200152 49.992,9.528 C49.7386654,9.22399848 49.3533359,9.072 48.836,9.072 C48.4519981,9.072 48.0960016,9.15999912 47.768,9.336 C47.4399984,9.51200088 47.1320014,9.75199848 46.844,10.056 L46.844,16 L45.124,16 L45.124,4.16 L46.844,4.16 L46.844,8.808 Z M55.712,4.16 L55.712,16 L53.992,16 L53.992,4.16 L55.712,4.16 Z" id="Dahl" fill="#FFFFFF"></path>
            <path d="M8.07616546,4.08203997 L18.6913768,4.08203997 L18.6913768,6.99313385 L8.07616546,6.99313385 L8.07616546,4.08203997 Z M2.17645481,4.08203997 L5.53183771,4.08203997 L5.53183771,6.99313385 L2.17645481,6.99313385 L2.17645481,4.08203997 Z M8.07616546,13.5992319 L18.6913768,13.5992319 L18.6913768,16.5103258 L8.07616546,16.5103258 L8.07616546,13.5992319 Z M2.17645481,13.5992319 L5.53183771,13.5992319 L5.53183771,16.5103258 L2.17645481,16.5103258 L2.17645481,13.5992319 Z M0.0734467921,8.84063593 L10.6886581,8.84063593 L10.6886581,11.7517298 L0.0734467921,11.7517298 L0.0734467921,8.84063593 Z M13.2969362,8.84063593 L16.6523191,8.84063593 L16.6523191,11.7517298 L13.2969362,11.7517298 L13.2969362,8.84063593 Z" id="Combined-Shape" fill="#9fa6ab"></path>
        </g>
    </g>
</svg>
