
<svg width="18px" height="18px" viewBox="0 0 18 18" version="1.1" xmlns="http://www.w3.org/2000/svg" xmlns:xlink="http://www.w3.org/1999/xlink">
    <!-- Generator: Sketch 48.2 (47327) - http://www.bohemiancoding.com/sketch -->
    <desc>Created with Sketch.</desc>
    <defs>
        <circle id="path-1" cx="9" cy="9" r="8.51794434"></circle>
    </defs>
    <g id="Page-1" stroke="none" stroke-width="1" fill="none" fill-rule="evenodd">
        <rect id="Rectangle" fill="#FFFFFF" x="0" y="0" width="18" height="18"></rect>
        <g id="Group">
            <mask id="mask-2" fill="white">
                <use xlink:href="#path-1"></use>
            </mask>
            <use id="Mask" fill="#FFFFFF" xlink:href="#path-1"></use>
            <g mask="url(#mask-2)" fill="#056C99">
                <g transform="translate(2.000000, 2.000000)">
                    <path d="M11.3805439,8 C11.8814386,8.19857774 12.3214556,8.42334809 12.7005988,8.6743127 C13.5668706,9.23767893 14,9.86973887 14,10.5705115 L14,16 L0,16 L0,10.5705115 C0,9.86973887 0.433129401,9.23767893 1.2994012,8.6743127 C1.67854443,8.42334809 2.11856136,8.19857774 2.61945605,8 C3.00078012,8.37951816 3.43239256,8.70958096 3.91429641,8.99019137 C4.85612229,9.53861229 5.88467987,9.81281863 7,9.81281863 C8.11532013,9.81281863 9.14387771,9.53861229 10.0857036,8.99019137 C10.5676074,8.70958096 10.9992199,8.37951816 11.3805439,8 Z" id="Combined-Shape"></path>
                    <path d="M7,7 C6.36746672,7 5.78413922,6.84281594 5.25,6.52844311 C4.71586078,6.21407028 4.29066423,5.79141982 3.97439759,5.26047904 C3.65813095,4.72953826 3.5,4.14970374 3.5,3.52095808 C3.5,2.89221243 3.65813095,2.30539195 3.97439759,1.76047904 C4.29066423,1.21556614 4.71586078,0.785929716 5.25,0.471556886 C5.78413922,0.157184057 6.36746672,0 7,0 C7.63253328,0 8.21586078,0.157184057 8.75,0.471556886 C9.28413922,0.785929716 9.70933577,1.21556614 10.0256024,1.76047904 C10.3418691,2.30539195 10.5,2.89221243 10.5,3.52095808 C10.5,4.14970374 10.3418691,4.72953826 10.0256024,5.26047904 C9.70933577,5.79141982 9.28413922,6.21407028 8.75,6.52844311 C8.21586078,6.84281594 7.63253328,7 7,7 Z" id="Path"></path>
                </g>
            </g>
        </g>
    </g>
</svg>