
<svg width="20px" height="20px" viewBox="0 0 20 20" version="1.1" xmlns="http://www.w3.org/2000/svg" xmlns:xlink="http://www.w3.org/1999/xlink">
    <!-- Generator: Sketch 48.2 (47327) - http://www.bohemiancoding.com/sketch -->
    <desc>Created with Sketch.</desc>
    <defs>
        <circle id="path-1" cx="10" cy="10" r="10"></circle>
    </defs>
    <g id="Page-1" stroke="none" stroke-width="1" fill="none" fill-rule="evenodd">
        <g id="User">
            <mask id="mask-2" fill="white">
                <use xlink:href="#path-1"></use>
            </mask>
            <use id="Mask" fill="#D8D8D8" xlink:href="#path-1"></use>
            <path d="M17.2857313,17.1852848 C17.2857313,18.814751 16.2143015,20.1428776 14.9084963,20.1428776 L5.37723498,20.1428776 C4.07142985,20.1428776 3,18.814751 3,17.1852848 C3,14.2500134 3.72544729,10.8571522 6.64955792,10.8571522 C7.55357686,11.7388497 8.78125689,12.2857254 10.1428657,12.2857254 C11.5044744,12.2857254 12.7321545,11.7388497 13.6361734,10.8571522 C16.560284,10.8571522 17.2857313,14.2500134 17.2857313,17.1852848 Z M14.4285851,7.28571939 C14.4285851,9.65179364 12.5089399,11.5714388 10.1428657,11.5714388 C7.77679141,11.5714388 5.85714626,9.65179364 5.85714626,7.28571939 C5.85714626,4.91964515 7.77679141,3 10.1428657,3 C12.5089399,3 14.4285851,4.91964515 14.4285851,7.28571939 Z" fill="#008AD2" mask="url(#mask-2)"></path>
        </g>
    </g>
</svg>