<?xml version="1.0" encoding="UTF-8"?>
<svg width="14px" height="16px" viewBox="0 0 14 16" version="1.1" xmlns="http://www.w3.org/2000/svg" xmlns:xlink="http://www.w3.org/1999/xlink">
    <!-- Generator: Sketch 45.2 (43514) - http://www.bohemiancoding.com/sketch -->
    <title>Group 5</title>
    <desc>Created with Sketch.</desc>
    <defs></defs>
    <g id="Page-1" stroke="none" stroke-width="1" fill="none" fill-rule="evenodd">
        <g id="Group-5" transform="translate(-2.000000, -1.000000)">
            <g id="ic_insert_drive_file_black_24px">
                <path d="M4,1.33333333 C3.26666667,1.33333333 2.67333333,1.93333333 2.67333333,2.66666667 L2.66666667,13.3333333 C2.66666667,14.0666667 3.26,14.6666667 3.99333333,14.6666667 L12,14.6666667 C12.7333333,14.6666667 13.3333333,14.0666667 13.3333333,13.3333333 L13.3333333,5.33333333 L9.33333333,1.33333333 L4,1.33333333 Z" id="Shape" fill-opacity="0.54" fill="#4A4A4A" fill-rule="nonzero"></path>
                <path d="M15.3333333,6 L7.33333333,6 C6.6,6 6,6.6 6,7.33333333 L6,16.6666667 L7.33333333,16.6666667 L7.33333333,7.33333333 L15.3333333,7.33333333 L15.3333333,6 Z" id="Path" fill-opacity="0.54" fill="#4A4A4A" transform="translate(10.666667, 11.333333) rotate(-180.000000) translate(-10.666667, -11.333333) "></path>
                <polygon id="Shape" points="0 0 16 0 16 16 0 16"></polygon>
            </g>
        </g>
    </g>
</svg>